<svg width="836" height="125" viewBox="0 0 836 125" fill="none" xmlns="http://www.w3.org/2000/svg">
<path d="M206.704 110V19.632H226.8V110H206.704ZM222.064 74.544V57.264H267.248V74.544H222.064ZM222.064 36.912V19.632H269.296V36.912H222.064ZM300.124 77.104V61.488H319.58C322.055 61.488 324.316 60.976 326.364 59.952C328.412 58.928 330.033 57.4347 331.228 55.472C332.423 53.5093 333.02 51.12 333.02 48.304C333.02 45.5733 332.423 43.2267 331.228 41.264C330.033 39.3013 328.412 37.808 326.364 36.784C324.316 35.76 322.055 35.248 319.58 35.248H300.124V19.632H322.524C328.241 19.632 333.404 20.784 338.012 23.088C342.62 25.392 346.247 28.72 348.892 33.072C351.623 37.3387 352.988 42.416 352.988 48.304C352.988 54.192 351.623 59.312 348.892 63.664C346.247 67.9307 342.62 71.2587 338.012 73.648C333.404 75.952 328.241 77.104 322.524 77.104H300.124ZM284.764 110V19.632H304.86V110H284.764ZM394.734 110L359.918 19.632H381.422L407.918 92.72H399.086L425.966 19.632H447.214L412.014 110H394.734ZM470.24 110V99.504H497.12C502.24 99.504 506.251 98.0107 509.152 95.024C512.053 91.952 513.504 88.2827 513.504 84.016C513.504 81.1147 512.864 78.512 511.584 76.208C510.304 73.8187 508.427 71.9413 505.952 70.576C503.563 69.2107 500.747 68.528 497.504 68.528H470.24V58.032H495.712C499.979 58.032 503.349 56.9227 505.824 54.704C508.384 52.4 509.664 49.1147 509.664 44.848C509.664 40.5813 508.341 37.3387 505.696 35.12C503.051 32.816 499.552 31.664 495.2 31.664H470.24V21.168H495.456C501.259 21.168 506.08 22.2347 509.92 24.368C513.845 26.416 516.789 29.1467 518.752 32.56C520.8 35.9733 521.824 39.728 521.824 43.824C521.824 48.6027 520.501 52.784 517.856 56.368C515.296 59.952 511.499 62.768 506.464 64.816L507.488 60.976C513.205 63.024 517.643 66.1387 520.8 70.32C524.043 74.416 525.664 79.28 525.664 84.912C525.664 89.6053 524.512 93.8293 522.208 97.584C519.904 101.339 516.576 104.368 512.224 106.672C507.957 108.891 502.709 110 496.48 110H470.24ZM462.176 110V21.168H474.208V110H462.176ZM568.294 111.28C562.747 111.28 557.713 109.915 553.19 107.184C548.667 104.368 545.083 100.571 542.438 95.792C539.878 91.0133 538.598 85.6373 538.598 79.664C538.598 73.6907 539.878 68.3147 542.438 63.536C545.083 58.7573 548.625 54.96 553.062 52.144C557.585 49.328 562.662 47.92 568.294 47.92C572.902 47.92 576.998 48.9013 580.582 50.864C584.251 52.7413 587.195 55.3867 589.414 58.8C591.633 62.128 592.87 66.0107 593.126 70.448V88.752C592.87 93.104 591.633 96.9867 589.414 100.4C587.281 103.813 584.379 106.501 580.71 108.464C577.126 110.341 572.987 111.28 568.294 111.28ZM570.214 100.4C575.931 100.4 580.539 98.48 584.038 94.64C587.537 90.7147 589.286 85.7227 589.286 79.664C589.286 75.4827 588.475 71.856 586.854 68.784C585.318 65.6267 583.099 63.1947 580.198 61.488C577.297 59.696 573.926 58.8 570.086 58.8C566.246 58.8 562.833 59.696 559.846 61.488C556.945 63.28 554.641 65.7547 552.934 68.912C551.313 71.984 550.502 75.5253 550.502 79.536C550.502 83.632 551.313 87.2587 552.934 90.416C554.641 93.488 556.987 95.92 559.974 97.712C562.961 99.504 566.374 100.4 570.214 100.4ZM588.518 110V93.616L590.694 78.768L588.518 64.048V49.2H600.166V110H588.518ZM628.842 110V23.728H640.362V110H628.842ZM613.866 59.696V49.2H691.562V59.696H613.866ZM665.066 110V23.728H676.586V110H665.066ZM705.433 110V18.608H716.953V110H705.433ZM764.528 111.28C758.469 111.28 753.008 109.915 748.144 107.184C743.28 104.368 739.44 100.571 736.624 95.792C733.808 91.0133 732.4 85.5947 732.4 79.536C732.4 73.5627 733.765 68.1867 736.496 63.408C739.312 58.6293 743.067 54.8747 747.76 52.144C752.539 49.328 757.872 47.92 763.76 47.92C769.392 47.92 774.341 49.2 778.608 51.76C782.96 54.32 786.331 57.8613 788.72 62.384C791.195 66.9067 792.432 72.0267 792.432 77.744C792.432 78.5973 792.389 79.536 792.304 80.56C792.219 81.4987 792.048 82.608 791.792 83.888H740.464V74.288H785.648L781.424 78C781.424 73.904 780.699 70.448 779.248 67.632C777.797 64.7307 775.749 62.512 773.104 60.976C770.459 59.3547 767.259 58.544 763.504 58.544C759.579 58.544 756.123 59.3973 753.136 61.104C750.149 62.8107 747.845 65.2 746.224 68.272C744.603 71.344 743.792 74.9707 743.792 79.152C743.792 83.4187 744.645 87.1733 746.352 90.416C748.059 93.5733 750.491 96.048 753.648 97.84C756.805 99.5467 760.432 100.4 764.528 100.4C767.941 100.4 771.056 99.8027 773.872 98.608C776.773 97.4133 779.248 95.6213 781.296 93.232L788.72 100.784C785.819 104.197 782.235 106.8 777.968 108.592C773.787 110.384 769.307 111.28 764.528 111.28Z" fill="#E9FFF7"/>
<path d="M74.2709 23.51C74.2709 37.4117 56.4754 47.1275 42.5737 47.1275C28.672 47.1275 14.9163 40.5193 14.9163 26.6175C14.9163 12.7158 32.7118 3 46.6135 3C60.5153 3 74.2709 9.60823 74.2709 23.51Z" fill="#8BD8BD"/>
<path d="M82.0398 23.51C82.0398 37.4117 99.8353 47.1275 113.737 47.1275C127.639 47.1275 141.394 40.5193 141.394 26.6175C141.394 12.7158 123.599 3 109.697 3C95.7955 3 82.0398 9.60823 82.0398 23.51Z" fill="#8BD8BD"/>
<path d="M156 90.9442C156 109.308 142.175 122.331 122.438 122.331C102.701 122.331 82.0398 103.715 82.0398 85.3506C82.0398 66.9865 95.5538 53.9641 115.291 53.9641C135.028 53.9641 156 72.5802 156 90.9442Z" fill="#8BD8BD"/>
<path d="M-6.10352e-05 90.9442C-6.10352e-05 109.308 13.8247 122.331 33.5617 122.331C53.2987 122.331 73.9601 103.715 73.9601 85.3506C73.9601 66.9865 60.4461 53.9641 40.7091 53.9641C20.9721 53.9641 -6.10352e-05 72.5802 -6.10352e-05 90.9442Z" fill="#8BD8BD"/>
</svg>
